<svg id="Capa_1" enable-background="new 0 0 512 512" height="312" viewBox="0 0 512 512" width="512" xmlns="http://www.w3.org/2000/svg"><g><path d="m256 22c-135.31 0-245 109.69-245 245s109.69 245 245 245c18.244 0 36.016-2.011 53.123-5.793l60.813-22.275c77.922-41.011 131.064-122.759 131.064-216.932 0-135.31-109.69-245-245-245z" fill="#384949"/><g><path d="m156.503 223.015h64.655c3.399 0 6.54-1.813 8.24-4.757l32.327-55.993c1.7-2.944 1.7-6.571 0-9.515l-32.327-55.993c-1.7-2.944-4.841-4.757-8.24-4.757h-64.655c-3.399 0-6.54 1.813-8.24 4.757l-32.327 55.993c-1.7 2.944-1.7 6.571 0 9.515l32.327 55.993c1.7 2.943 4.841 4.757 8.24 4.757z" fill="#fac600"/><path d="m181.263 218.257-32.327-55.993c-1.7-2.944-1.7-6.571 0-9.515l32.327-55.993c1.7-2.944 4.841-4.757 8.24-4.757h-33c-3.399 0-6.54 1.813-8.24 4.757l-32.327 55.993c-1.7 2.944-1.7 6.571 0 9.515l32.327 55.993c1.7 2.944 4.841 4.757 8.24 4.757h33c-3.399.001-6.54-1.813-8.24-4.757z" fill="#e8b800"/><g><path d="m220.915 121.131c-1.255-1.119-2.934-1.65-4.603-1.46l-43.324 4.964c-2.982.342-5.231 2.864-5.231 5.866v38.589c3.805 2.526 6.319 6.848 6.319 11.747h.451v-37.516l41.592-4.623v25.278c3.805 2.526 6.319 6.848 6.319 11.747h.451v-50.186c0-1.682-.72-3.287-1.974-4.406z" fill="#6f3f8a"/><g><path d="m159.982 195.382c-8.02 0-14.544-6.525-14.544-14.545s6.525-14.544 14.544-14.544c8.02 0 14.544 6.525 14.544 14.544.001 8.02-6.524 14.545-14.544 14.545z" fill="#814ba2"/></g><g><path d="m208.344 190.267c-8.02 0-14.544-6.525-14.544-14.545s6.525-14.544 14.544-14.544c8.02 0 14.545 6.525 14.545 14.544 0 8.02-6.525 14.545-14.545 14.545z" fill="#814ba2"/></g></g></g><g><path d="m310.123 414.828h-22.719c-2.999 0-5.43 2.431-5.43 5.43v57.555c0 2.999 2.431 5.43 5.43 5.43h22.719z" fill="#a8d3d8"/><path d="m324.326 354.102h30.406v29.148h-30.406z" fill="#537983"/><path d="m359.076 382.25h-39.094c-5.997 0-10.859 4.862-10.859 10.859v113.097c21.465-4.746 41.87-12.306 60.813-22.275v-90.822c-.001-5.997-4.863-10.859-10.86-10.859z" fill="#7ca1b1"/><path d="m336.188 393.109c0-5.998 4.862-10.859 10.859-10.859h-27.065c-5.997 0-10.859 4.862-10.859 10.859v113.097c9.229-2.04 18.26-4.604 27.065-7.653z" fill="#678d98"/><g><g><path d="m372.193 284.963h18.608v37.625h-18.608z" fill="#8ebac5"/><path d="m288.256 284.963h18.608v37.625h-18.608z" fill="#a8d3d8"/></g><g><g><path d="m289.256 331.722v-55.894c0-2.999-2.431-5.43-5.43-5.43h-17.056c-2.999 0-5.43 2.431-5.43 5.43v55.894c0 2.999 2.431 5.43 5.43 5.43h17.056c2.999 0 5.43-2.431 5.43-5.43z" fill="#678d98"/></g><path d="m272.085 331.722v-55.894c0-2.999 2.431-5.43 5.43-5.43h-10.744c-2.999 0-5.43 2.431-5.43 5.43v55.894c0 2.999 2.431 5.43 5.43 5.43h10.744c-2.999 0-5.43-2.431-5.43-5.43z" fill="#537983"/><g><path d="m417.716 331.722v-55.894c0-2.999-2.431-5.43-5.43-5.43h-17.056c-2.999 0-5.43 2.431-5.43 5.43v55.894c0 2.999 2.431 5.43 5.43 5.43h17.056c2.999 0 5.43-2.431 5.43-5.43z" fill="#678d98"/></g><path d="m400.085 331.722v-55.894c0-2.999 2.431-5.43 5.43-5.43h-10.284c-2.999 0-5.43 2.431-5.43 5.43v55.894c0 2.999 2.431 5.43 5.43 5.43h10.284c-2.999 0-5.43-2.431-5.43-5.43z" fill="#537983"/></g></g><path d="m305.865 253.876v90.366c0 5.998 4.862 10.859 10.859 10.859h45.609c5.997 0 10.859-4.862 10.859-10.859v-90.366z" fill="#a8d3d8"/><path d="m333 344.242v-89.366h-27.135v89.366c0 5.998 4.862 10.859 10.859 10.859h27.135c-5.997.001-10.859-4.861-10.859-10.859z" fill="#8ebac5"/><path d="m387.883 0h-96.708c-23.461 0-42.479 19.019-42.479 42.479v169.917c0 16.626 9.558 31.013 23.473 37.989l1-.622v-19.161c0-4.468 3.635-8.103 8.103-8.103s8.103 3.635 8.103 8.103v23.223l1 1.031c.267.005.532.02.8.02h19.832l1-1v-23.274c0-4.468 3.635-8.103 8.103-8.103s8.103 3.635 8.103 8.103v23.274l1 1h20.633l1-1v-23.274c0-4.468 3.635-8.103 8.103-8.103s8.103 3.635 8.103 8.103v23.274l1 1h19.832c.268 0 .533-.015.801-.02l1-1.031v-23.223c0-4.468 3.635-8.103 8.103-8.103s8.103 3.635 8.103 8.103v19.161l1 .622c13.916-6.976 23.473-21.362 23.473-37.989v-169.917c-.002-23.46-19.02-42.479-42.481-42.479z" fill="#7ca1b1"/><g fill="#678d98"><path d="m272.169 230.602c0-5.027 4.076-9.103 9.103-9.103 3.334 0 6.241 1.798 7.827 4.473-1.438-4.264-2.229-8.826-2.229-13.575v-169.918c0-23.46 19.018-42.479 42.479-42.479h-38.174c-23.461 0-42.479 19.019-42.479 42.479v169.917c0 16.627 9.558 31.012 23.473 37.988z"/><path d="m290.218 228.953c.098.536.157 1.085.157 1.649v24.254c.267.005.532.02.801.02h38.174c-17.588 0-32.678-10.688-39.132-25.923z"/></g><g><circle cx="339.529" cy="75.249" fill="#537983" r="18.205"/></g><g fill="#537983"><g><path d="m272.169 4.491v30.706c0 5.027 4.075 9.103 9.103 9.103 5.027 0 9.103-4.075 9.103-9.103v-35.177c-6.537.121-12.711 1.716-18.206 4.471z"/><path d="m311.007 0v35.197c0 5.027 4.076 9.103 9.103 9.103s9.103-4.075 9.103-9.103v-35.197z"/><path d="m349.845 0v35.197c0 5.027 4.075 9.103 9.103 9.103 5.027 0 9.103-4.075 9.103-9.103v-35.197z"/><path d="m388.684.02v35.177c0 5.027 4.075 9.103 9.103 9.103 5.027 0 9.103-4.075 9.103-9.103v-30.706c-5.496-2.755-11.67-4.35-18.206-4.471z"/></g><g><path d="m281.272 221.499c-5.027 0-9.103 4.075-9.103 9.103v19.783c5.495 2.755 11.669 4.349 18.205 4.471v-24.254c0-5.027-4.075-9.103-9.102-9.103z"/><path d="m281.272 221.499c-5.027 0-9.103 4.075-9.103 9.103v19.783c5.495 2.755 11.669 4.349 18.205 4.471v-24.254c0-5.027-4.075-9.103-9.102-9.103z"/><path d="m320.11 221.499c-5.027 0-9.103 4.075-9.103 9.103v24.274h18.205v-24.274c.001-5.027-4.075-9.103-9.102-9.103z"/><path d="m358.948 221.499c-5.027 0-9.103 4.075-9.103 9.103v24.274h18.205v-24.274c.001-5.027-4.075-9.103-9.102-9.103z"/><path d="m397.786 221.499c-5.027 0-9.103 4.075-9.103 9.103v24.254c6.537-.121 12.71-1.716 18.205-4.471v-19.783c.001-5.027-4.074-9.103-9.102-9.103z"/></g><g><g><path d="m299.477 67.36h-50.782v18.205h50.782c5.027 0 9.103-4.075 9.103-9.103 0-5.026-4.076-9.102-9.103-9.102z"/><path d="m299.477 183.875h-50.782v18.205h50.782c5.027 0 9.103-4.075 9.103-9.103s-4.076-9.102-9.103-9.102z"/></g><g><path d="m430.362 67.36h-50.782c-5.027 0-9.103 4.075-9.103 9.103 0 5.027 4.075 9.103 9.103 9.103h50.782z"/><path d="m248.695 106.198h181.667v18.205h-181.667z"/><path d="m248.695 145.037h181.667v18.205h-181.667z"/><path d="m430.362 183.875h-50.782c-5.027 0-9.103 4.075-9.103 9.103s4.075 9.103 9.103 9.103h50.782z"/></g></g></g><circle cx="339.529" cy="321.98" fill="#0ed290" r="8.145"/><circle cx="339.529" cy="285.059" fill="#fe3d97" r="14.66"/><path d="m335.68 285.059c0-6.186 3.836-11.465 9.255-13.618-1.674-.665-3.494-1.042-5.405-1.042-8.097 0-14.66 6.564-14.66 14.66s6.564 14.66 14.66 14.66c1.911 0 3.731-.377 5.405-1.042-5.419-2.153-9.255-7.433-9.255-13.618z" fill="#e41e7f"/><path d="m339.529 481.016c-4.479 0-8.145-3.665-8.145-8.145v-59.727c0-4.479 3.665-8.145 8.145-8.145 4.479 0 8.145 3.665 8.145 8.145v59.727c-.001 4.48-3.666 8.145-8.145 8.145z" fill="#0ed290"/></g><g><path d="m98.152 393h70.939c3.73 0 7.176-1.99 9.041-5.22l35.469-61.435c1.865-3.23 1.865-7.21 0-10.44l-35.469-61.435c-1.865-3.23-5.311-5.22-9.041-5.22h-70.939c-3.73 0-7.176 1.99-9.041 5.22l-35.469 61.435c-1.865 3.23-1.865 7.21 0 10.44l35.468 61.435c1.865 3.23 5.312 5.22 9.042 5.22z" fill="#fac600"/><path d="m210.342 445.206h20.616c1.084 0 2.085-.578 2.627-1.517l10.308-17.854c.542-.939.542-2.095 0-3.034l-10.308-17.854c-.542-.939-1.544-1.517-2.627-1.517h-20.616c-1.084 0-2.085.578-2.627 1.517l-10.308 17.854c-.542.939-.542 2.095 0 3.034l10.308 17.854c.542.938 1.543 1.517 2.627 1.517z" fill="#fac600"/><path d="m122.111 387.78-35.47-61.435c-1.865-3.23-1.865-7.209 0-10.44l35.47-61.435c1.865-3.23 5.311-5.22 9.041-5.22h-33c-3.73 0-7.176 1.99-9.041 5.22l-35.47 61.435c-1.865 3.23-1.865 7.21 0 10.44l35.47 61.435c1.865 3.23 5.311 5.22 9.041 5.22h33c-3.73 0-7.177-1.99-9.041-5.22z" fill="#e8b800"/><g><path d="m168.824 281.213c-1.377-1.228-3.219-1.811-5.05-1.602l-47.536 5.447c-3.272.375-5.74 3.142-5.74 6.436v42.34c4.174 2.772 6.933 7.513 6.933 12.889h.495v-41.163l45.635-5.073v27.735c4.174 2.772 6.933 7.513 6.933 12.889h.495v-55.064c.001-1.845-.788-3.607-2.165-4.834z" fill="#6f3f8a"/><g><path d="m101.969 362.681c-8.799 0-15.958-7.159-15.958-15.958s7.159-15.958 15.958-15.958 15.958 7.159 15.958 15.958-7.159 15.958-15.958 15.958z" fill="#814ba2"/></g><g><path d="m155.032 357.069c-8.799 0-15.958-7.159-15.958-15.958s7.159-15.958 15.958-15.958 15.958 7.159 15.958 15.958-7.159 15.958-15.958 15.958z" fill="#814ba2"/></g></g></g></g></svg>